<svg id="mainPointer" data-name="Layer 2" xmlns="http://www.w3.org/2000/svg" width="18px" height="18px" viewBox="6 0 207.29 224.35"><title>pointer</title>
<path fill="#fb4a85" d="M206.45,211.07c-44-65.61-106.36-126.65-166-177.61l.21.67c0-.13-.1-.33-.21-.67h0q24.67,2.34,49.07,7.09c12.52,2.44,25,5.44,36.36,8.69,6,1.72,12,3.62,18.07,5.39,7.26,2.13,14.37,3.38,21.76,4.83,6.23,1.23,13.4-3.67,16.41-8.74,2.57-4.32,3.46-12.51-1.94-15.43-4.87-2.64-9.63-6-14.81-8-2.95-1.12-5.92-2.18-8.89-3.24-5.92-2.1-12-3.75-18.07-5.44Q118.26,13,97.72,8.88A491.42,491.42,0,0,0,21,0C9.72-.41-3.29,9.1.75,21.76c2.81,8.78,32,102,43.67,136.4,6.55,19.39,37.74,6.55,31.91-11.85L61.45,99.46c45.92,37.6,90.47,77.05,128.25,122.91C195,228.82,211.13,218.06,206.45,211.07ZM40.46,33.46Z"/></svg>